<svg id="Layer_3" data-name="Layer 3" xmlns="http://www.w3.org/2000/svg" viewBox="0 0 1241.95 531.71"><defs><style>.cls-1{fill:none;stroke:#0865b6;stroke-linecap:round;stroke-miterlimit:10;stroke-width:7px;}</style></defs><path d="M1237,448a1.5,1.5,0,0,0,0-3,1.5,1.5,0,0,0,0,3Z" transform="translate(3.5 -317.77)"/><path class="cls-1" d="M0,467.7V603.56a21.1,21.1,0,0,0,11.67,18.88L70.74,652a10,10,0,0,0,13.87-5.49l95.51-259.69L46.58,322.61l-42,118.64A79.18,79.18,0,0,0,0,467.7Z" transform="translate(3.5 -317.77)"/><path class="cls-1" d="M248.44,425.1,176.51,621.6l-9.38,25.63a9.75,9.75,0,0,1-13.07,5.57L92.28,625.6l87.84-238.81Z" transform="translate(3.5 -317.77)"/><path class="cls-1" d="M1000,470.15V589.07a44.76,44.76,0,0,1-27.25,41.2l-56.24,23.91a6.73,6.73,0,0,1-9-3.93l-11.06-31L813.66,386.79l142.86-64.18,37,108.2A121.86,121.86,0,0,1,1000,470.15Z" transform="translate(3.5 -317.77)"/><path class="cls-1" d="M896.47,619.21l-67,35.41a4.35,4.35,0,0,1-6.13-2.41l-15.91-45.49L744.3,426.14l69.36-39.35Z" transform="translate(3.5 -317.77)"/><path class="cls-1" d="M299.69,681.71A56.15,56.15,0,0,1,282.88,703c-1.36,1.07-2.73,2.07-4.15,3-20.05,13.15-38.05,6.82-50.21-8.65-11.88-15.14-14.34-33.58,2.28-49.9a62.22,62.22,0,0,1,5-4.4,54.81,54.81,0,0,1,30.43-11.94c12.18-.69,23.49,3.49,30.57,12.51C305,654,305.55,668.43,299.69,681.71Z" transform="translate(3.5 -317.77)"/><path class="cls-1" d="M375.59,712.51c-3.91,11.92-11.66,24.22-22.75,34.84a93.49,93.49,0,0,1-17.78,13.48c-21.89,12.82-40.53,7.28-53.14-5.85-12.15-12.65-15.56-28.3-3.19-49,1.42-.91,2.79-1.91,4.15-3a56.15,56.15,0,0,0,16.81-21.31c24.89-20.68,55.4-25.12,70.47-9.43C379.32,681.85,380.76,696.83,375.59,712.51Z" transform="translate(3.5 -317.77)"/><path class="cls-1" d="M427.63,768.64a94,94,0,0,1-11.84,18.93,98.26,98.26,0,0,1-9,9.84c-21.39,20.29-42.56,21.84-58.43,9.15-12.75-10.19-20.74-25.15-13.28-45.73a93.49,93.49,0,0,0,17.78-13.48c11.09-10.62,18.84-22.92,22.75-34.84,17.37-9.86,35.58-11.17,47.5-1.63C437.3,722.26,438.43,745.69,427.63,768.64Z" transform="translate(3.5 -317.77)"/><path class="cls-1" d="M473.06,822.63c-.59.62-1.22,1.23-1.85,1.84-18.87,18.1-45.16,21.33-58.71,7.2-8.19-8.52-9.85-21.41-5.73-34.26a98.26,98.26,0,0,0,9-9.84,94,94,0,0,0,11.84-18.93c9.38-7.16,19.95-11,29.68-11.29,9.18-.33,17.61,2.53,23.57,8.76C494,779.75,490.37,804.62,473.06,822.63Z" transform="translate(3.5 -317.77)"/><path class="cls-1" d="M512.43,777.54s39.29,31.24,81.55,37.79a75.65,75.65,0,0,1-6.34,8.31c-29,33.43-69.13,23.25-97.86,8.63" transform="translate(3.5 -317.77)"/><path class="cls-1" d="M591.15,660.12h0A589.79,589.79,0,0,0,651.4,682c26.15,7.86,55.93,14.45,78.69,12.79,27.8-2,45.17-16.28,32.84-55.43-.6-1.92-1.23-3.81-1.86-5.63a114.06,114.06,0,0,1-33.37,8c-19,1.38-38.48-3.1-56.94-17-9.63-7.24-19-17-27.9-29.93-7.38-10.66-14.49-20-21.35-28.09-11.63-13.83-22.5-24.23-32.55-32-51.76-39.92-81.72-9.29-81.72-9.29-70,130.76-131.79,93.76-152.25,75.6a7.63,7.63,0,0,1,.69-12,62.56,62.56,0,0,0,12-10.81c10.12-11.68,18.65-30,15.11-56.4-4.75-35.23,8.67-51.69,13.52-56.84.77-.79,5-5.33,9.3-7.38,31.87-15.31,63.94-37.46,83.93-52.32l-14.43-4.06s-75.56-7.23-131.47,23.82-95.24,0-95.24,0L176.51,621.6l54.29,25.85a62.22,62.22,0,0,1,5-4.4,54.81,54.81,0,0,1,30.43-11.94c12.18-.69,23.49,3.49,30.57,12.51,8.19,10.42,8.76,24.81,2.9,38.09,24.89-20.68,55.4-25.12,70.47-9.43,9.16,9.57,10.6,24.55,5.43,40.23,17.37-9.86,35.58-11.17,47.5-1.63,14.21,11.38,15.34,34.81,4.54,57.76,9.38-7.16,19.95-11,29.68-11.29,9.18-.33,17.61,2.53,23.57,8.76,13.1,13.64,9.49,38.51-7.82,56.52a188.86,188.86,0,0,0,16.72,9.64" transform="translate(3.5 -317.77)"/><path class="cls-1" d="M543.46,714.61s80.18,55.53,135.34,49.81a99.56,99.56,0,0,1-6.28,13.12c-20,35.42-50,42.25-78.54,37.79-42.26-6.55-81.55-37.79-81.55-37.79" transform="translate(3.5 -317.77)"/><path class="cls-1" d="M512.43,777.54s39.29,31.24,81.55,37.79a75.65,75.65,0,0,1-6.34,8.31c-29,33.43-69.13,23.25-97.86,8.63" transform="translate(3.5 -317.77)"/><path class="cls-1" d="M591.15,660.12h0A589.79,589.79,0,0,0,651.4,682c26.15,7.86,55.93,14.45,78.69,12.79-.42,4.5-1,9.24-1.66,14.27-5.13,37.87-24.85,52.79-49.63,55.34-55.16,5.72-135.34-49.81-135.34-49.81" transform="translate(3.5 -317.77)"/><path class="cls-1" d="M807.47,606.72c-13,9.9-28,19.42-44.09,26.07-.77.35-1.54.65-2.31,1a114.06,114.06,0,0,1-33.37,8c-19,1.38-38.48-3.1-56.94-17-9.63-7.24-19-17-27.9-29.93-7.38-10.66-14.49-20-21.35-28.09-11.63-13.83-22.5-24.23-32.55-32-51.76-39.92-81.72-9.29-81.72-9.29-70,130.76-131.79,93.76-152.25,75.6a7.63,7.63,0,0,1,.69-12,62.56,62.56,0,0,0,12-10.81c10.12-11.68,18.65-30,15.11-56.4-4.75-35.23,8.67-51.69,13.52-56.84.77-.79,5-5.33,9.3-7.38,31.87-15.31,63.94-37.46,83.93-52.32,8.39-6.25,14.66-11.19,17.88-13.81a37.61,37.61,0,0,1,27-8.23l71.81,3.33a29.92,29.92,0,0,1,6.85,1.15L744.3,426.14Z" transform="translate(3.5 -317.77)"/></svg>